<?xml version="1.0" encoding="utf-8"?>
<!-- Generator: Adobe Illustrator 23.0.1, SVG Export Plug-In . SVG Version: 6.00 Build 0)  -->
<svg version="1.1" id="Capa_1" xmlns="http://www.w3.org/2000/svg" xmlns:xlink="http://www.w3.org/1999/xlink" x="0px" y="0px"
	 viewBox="0 0 284.9 284.9" style="enable-background:new 0 0 284.9 284.9;" xml:space="preserve">
<g>
	<path d="M2.8,208.4l14.3,14.3c1.9,1.9,4.1,2.9,6.6,2.9c2.5,0,4.7-0.9,6.6-2.9l112.2-112.2l112.2,112.2c1.9,1.9,4.1,2.9,6.6,2.9
		c2.5,0,4.7-0.9,6.6-2.9l14.3-14.3c1.9-1.9,2.9-4.1,2.9-6.6c0-2.5-1-4.7-2.9-6.6l-133-133c-1.9-1.9-4.1-2.9-6.6-2.9s-4.7,1-6.6,2.9
		L2.8,195.3c-1.9,1.9-2.8,4.1-2.8,6.6C0,204.3,0.9,206.5,2.8,208.4z"/>
</g>
</svg>
