<?xml version="1.0" encoding="utf-8"?>
<!-- Svg Vector Icons : http://www.onlinewebfonts.com/icon -->
<!DOCTYPE svg PUBLIC "-//W3C//DTD SVG 1.1//EN" "http://www.w3.org/Graphics/SVG/1.1/DTD/svg11.dtd">
<svg version="1.1" xmlns="http://www.w3.org/2000/svg" xmlns:xlink="http://www.w3.org/1999/xlink" x="0px" y="0px" viewBox="0 0 1000 1000" enable-background="new 0 0 1000 1000" xml:space="preserve">
<metadata> Svg Vector Icons : http://www.onlinewebfonts.com/icon </metadata>
<g><g transform="translate(0.000000,511.000000) scale(0.100000,-0.100000)"><path d="M4680.4,5007.4c-759-75.7-1258.1-210.7-1841.2-499.2c-1000.4-493-1747-1239.7-2240.1-2240.1C253.4,1570.6,100,903.6,100,109.9c0-793.7,153.4-1460.6,499.2-2158.2c488.9-992.2,1239.7-1747.1,2219.6-2229.8c343.7-169.8,605.5-270,902.2-347.8c732.4-190.3,1450.4-216.8,2176.7-83.9C7884-4341.6,9449-2776.6,9817.2-790.2c133,726.2,106.4,1444.3-83.9,2176.7c-77.8,296.6-178,558.5-347.8,902.2c-718,1456.6-2094.8,2446.7-3723.2,2682C5457.8,4999.2,4835.9,5023.7,4680.4,5007.4z M5502.8,4007c1200.9-157.5,2264.6-861.2,2882.4-1906.6c718-1215.2,720.1-2763.8,4.1-3974.8c-961.5-1628.4-2929.5-2348.5-4707.2-1718.4c-1387,491-2389.4,1732.7-2581.7,3197.5c-202.5,1556.8,550.3,3093.1,1906.6,3893C3747.5,3935.4,4643.6,4117.5,5502.8,4007z"/><path d="M4342.8,1398.7V-565.2H6184h1841.1v491v491H6675H5324.8v1472.9v1472.9h-491h-491V1398.7z"/></g></g>
</svg>