<?xml version="1.0" encoding="utf-8"?>
<!-- Generator: Adobe Illustrator 22.1.0, SVG Export Plug-In . SVG Version: 6.00 Build 0)  -->
<svg version="1.1" id="Layer_1" xmlns="http://www.w3.org/2000/svg" xmlns:xlink="http://www.w3.org/1999/xlink" x="0px" y="0px"
	 viewBox="0 0 137.7 121.9" style="enable-background:new 0 0 137.7 121.9;" xml:space="preserve">
<path d="M112.5,0H25.2C11.3,0,0,11.3,0,25.2v91.3c0,2.8,2.1,5.1,4.9,5.3c0.1,0,0.3,0,0.4,0c1.3,0,2.5-0.5,3.5-1.3L39.1,94h73.4
	c13.9,0,25.2-11.3,25.2-25.2V25.2C137.7,11.3,126.4,0,112.5,0z M127.1,25.2v43.7c0,8.2-6.4,14.5-14.5,14.5H37.1
	c-1.3,0-2.5,0.5-3.5,1.3l-23,20.1V25.2c0-8.2,6.4-14.5,14.5-14.5h87.4C120.7,10.6,127.1,17,127.1,25.2z"/>
</svg>
