<svg id="Layer_1" data-name="Layer 1" xmlns="http://www.w3.org/2000/svg" viewBox="0 0 137.72 137.65"><defs><style>.cls-1{fill:#010101;}</style></defs><title>icon-new-window</title><path class="cls-1" d="M233,347.67a5.28,5.28,0,0,0,3.74-1.55l49.81-49.81v25.75a5.3,5.3,0,0,0,10.59,0V283.54a5.29,5.29,0,0,0-5.3-5.29H253.31a5.29,5.29,0,0,0,0,10.58h25.75L228.9,338.64a5.29,5.29,0,0,0,3.74,9Z" transform="translate(-160.04 -278.25)"/><path class="cls-1" d="M292.4,352.75a5.29,5.29,0,0,0-5.29,5.29v43.75a3.46,3.46,0,0,1-3.46,3.45H174.15a3.45,3.45,0,0,1-3.45-3.45V292.29a3.45,3.45,0,0,1,3.45-3.46h41.42a5.29,5.29,0,0,0,0-10.58H174.15A14.11,14.11,0,0,0,160,292.36h0V401.79a14.11,14.11,0,0,0,14.11,14.11h109.5a14.11,14.11,0,0,0,14.11-14.11V358a5.29,5.29,0,0,0-5.29-5.29Z" transform="translate(-160.04 -278.25)"/></svg>