<?xml version="1.0" encoding="utf-8"?>
<!-- Generator: Adobe Illustrator 22.1.0, SVG Export Plug-In . SVG Version: 6.00 Build 0)  -->
<svg version="1.1" id="Layer_1" xmlns="http://www.w3.org/2000/svg" xmlns:xlink="http://www.w3.org/1999/xlink" x="0px" y="0px"
	 viewBox="0 0 36 36" style="enable-background:new 0 0 36 36;" xml:space="preserve">
<g>
	<g>
		<path d="M33.3,0H2.7C1.2,0,0,1.2,0,2.6v30.8C0,34.8,1.2,36,2.7,36h30.7c1.5,0,2.7-1.2,2.7-2.6V2.6C36,1.2,34.8,0,33.3,0z
			 M10.7,30.7H5.3V13.5h5.3V30.7z M8,11.1c-1.7,0-3.1-1.4-3.1-3.1C4.9,6.3,6.3,5,8,5c1.7,0,3.1,1.4,3.1,3.1
			C11.1,9.8,9.7,11.1,8,11.1z M30.7,30.7h-5.3v-8.4c0-2,0-4.6-2.8-4.6c-2.8,0-3.2,2.2-3.2,4.4v8.5H14V13.5h5.1v2.3h0.1
			c0.7-1.4,2.5-2.8,5.1-2.8c5.4,0,6.4,3.6,6.4,8.2V30.7z"/>
	</g>
</g>
</svg>
