<?xml version="1.0" encoding="utf-8"?>
<!-- Generator: Adobe Illustrator 23.0.1, SVG Export Plug-In . SVG Version: 6.00 Build 0)  -->
<svg version="1.1" id="Layer_1" xmlns="http://www.w3.org/2000/svg" xmlns:xlink="http://www.w3.org/1999/xlink" x="0px" y="0px"
	 viewBox="0 0 11.2 16.2" style="enable-background:new 0 0 11.2 16.2;" xml:space="preserve">
<style type="text/css">
	.st0{fill:#29C46D;}
	.st1{fill:#231F20;}
</style>
<g id="Layer_1">
	<g>
		<path id="Shape_7_" class="st0" d="M4.9,0.3C4.8,0.5,4.7,0.7,4.7,0.9l0,12.1L1.5,9.9c-0.4-0.3-0.9-0.3-1.3,0
			c-0.3,0.3-0.4,0.9,0,1.3l4.7,4.7c0.2,0.2,0.4,0.3,0.6,0.3c0.2,0,0.5-0.1,0.6-0.3l4.7-4.7c0.4-0.4,0.4-0.9,0-1.3
			c-0.4-0.4-0.9-0.4-1.3,0l-3.1,3.1l0-12.2c0-0.4-0.2-0.7-0.6-0.8S5.2,0,4.9,0.3L4.9,0.3z"/>
	</g>
	<g>
		<path id="Shape_6_" class="st1" d="M4.9,0.3C4.8,0.5,4.7,0.7,4.7,0.9l0,12.1L1.5,9.9c-0.4-0.3-0.9-0.3-1.3,0
			c-0.3,0.3-0.4,0.9,0,1.3l4.7,4.7c0.2,0.2,0.4,0.3,0.6,0.3c0.2,0,0.5-0.1,0.6-0.3l4.7-4.7c0.4-0.4,0.4-0.9,0-1.3
			c-0.4-0.4-0.9-0.4-1.3,0l-3.1,3.1l0-12.2c0-0.4-0.2-0.7-0.6-0.8S5.2,0,4.9,0.3L4.9,0.3z"/>
	</g>
</g>
</svg>
