<?xml version="1.0" encoding="utf-8"?>
<!-- Generator: Adobe Illustrator 23.0.1, SVG Export Plug-In . SVG Version: 6.00 Build 0)  -->
<svg version="1.1" id="Layer_1" xmlns="http://www.w3.org/2000/svg" xmlns:xlink="http://www.w3.org/1999/xlink" x="0px" y="0px"
	 viewBox="0 0 52 65" style="enable-background:new 0 0 52 65;" xml:space="preserve">
<path d="M48.6,11.5l-0.2-0.2l-0.1,0.1C47.9,11.1,47.5,11,47,11H5c-0.5,0-0.9,0.1-1.3,0.3l-0.1-0.1l-0.2,0.2C2.6,12,2,12.9,2,14v24
	c0,1.1,0.6,2.1,1.5,2.6l0.1,0.1l0,0C4.1,40.9,4.5,41,5,41h42c1.7,0,3-1.3,3-3V14C50,12.9,49.4,12,48.6,11.5z M48,38.2L33.7,25.4
	L48,14.1V38C48,38.1,48,38.1,48,38.2z M46.1,13L26.5,28.5c-0.3,0.2-0.7,0.2-1,0L5.9,13H46.1z M4,37.8V14.1l14,11.1L4,37.8z
	 M19.6,26.4l4.7,3.7l0.1,0.1c0.5,0.3,1,0.4,1.6,0.4s1.1-0.1,1.6-0.4l4.5-3.6L45.8,39H5.6L19.6,26.4z"/>
</svg>
