<?xml version="1.0" encoding="utf-8"?>
<!-- Generator: Adobe Illustrator 23.0.2, SVG Export Plug-In . SVG Version: 6.00 Build 0)  -->
<svg version="1.1" id="Layer_1" xmlns="http://www.w3.org/2000/svg" xmlns:xlink="http://www.w3.org/1999/xlink" x="0px" y="0px"
	 viewBox="0 0 370 52" style="enable-background:new 0 0 370 52;" xml:space="preserve">
<style type="text/css">
	.st0{filter:url(#Adobe_OpacityMaskFilter);}
	.st1{fill-rule:evenodd;clip-rule:evenodd;fill:#FFFFFF;}
	.st2{mask:url(#mask-2_1_);fill-rule:evenodd;clip-rule:evenodd;fill:#231F20;}
	.st3{fill-rule:evenodd;clip-rule:evenodd;fill:#231F20;}
	.st4{filter:url(#Adobe_OpacityMaskFilter_1_);}
	.st5{mask:url(#mask-4_1_);fill-rule:evenodd;clip-rule:evenodd;fill:#231F20;}
</style>
<defs>
	<filter id="Adobe_OpacityMaskFilter" filterUnits="userSpaceOnUse" x="0" y="0" width="28.1" height="39.2">
		<feColorMatrix  type="matrix" values="1 0 0 0 0  0 1 0 0 0  0 0 1 0 0  0 0 0 1 0"/>
	</filter>
</defs>
<mask maskUnits="userSpaceOnUse" x="0" y="0" width="28.1" height="39.2" id="mask-2_1_">
	<g class="st0">
		<polygon id="path-1_1_" class="st1" points="0,0 28.1,0 28.1,39.2 0,39.2 		"/>
	</g>
</mask>
<path id="Fill-1" class="st2" d="M10.6,28.7V14.8l-4.2,1.9c0,0-1.1,2.4-0.9,5.9c0.2,2.7,1.7,5.9,2.8,7.3L10.6,28.7z M22.9,0
	c1,0.1,2.7,0.6,3.9,1.7c1.3,1.3,1.6,3.2,1.1,4.9C27.5,8.2,27,9,25.5,10c-1.6,1.1-3.5,1-3.5,1v6.7l3.3,2.6L21.9,23v9.1
	c0,0,3.3-1.9,5.3-6.1c0,0,0.1-0.2,0.3-0.7c0.2,1.1,0.1,3.4-1.2,6.3c-1,2.2-2.7,4.3-4.9,5.5c-3.9,2.1-6.8,2.3-9.9,1.7
	c-3.7-0.8-7-2.8-9.2-6.4C0.7,30-0.1,27.1,0,24c0.1-6.2,4.7-11.5,10.1-13.5c0.6-0.2,0.9-0.4,1.8-0.5c-0.4,0.3-0.9,0.7-1.5,1.1
	c-1.7,1.1-3.2,3.4-3.8,5.1l10.3-4.6v14.4l-8.3,4.2c0.9,1.3,3.8,3.3,6.3,3.6c4.2,0.5,6.7-1.4,6.7-1.4V23l-3.3-2.6l3.3-2.6V11
	c-1.8-0.2-3.9-0.8-5.2-1.1c-1.9-0.5-8-2.2-9-2.3c-1-0.1-2.2-0.1-2.9,0.5C3.7,8.8,3.3,9.9,3.6,11c0.2,0.6,0.6,0.9,0.9,1.3
	c0,0-0.4,0-1-0.4c-1.2-0.7-2.1-2.1-2.2-3.7C1.2,5.9,2.1,3.9,3.9,2.5c1.6-1,3.4-1.7,5.5-1.4c3,0.4,7.1,2.1,10.8,3
	c1.4,0.3,2.5,0.5,3.5-0.1c0.5-0.3,1.3-1.2,0.6-2.3c-0.8-1.3-2.3-1.3-3.5-1.5C21.8,0,22.1,0,22.9,0L22.9,0z"/>
<path id="Fill-4" class="st3" d="M63.1,25l-4.7,3.4V17.1L63.1,25z M62.9,14.1c0,0-3.2,1.9-5.3,3.2c-2.1,1.3-5,2.6-5,2.6v13.3
	l-1.9,1.5L51,35l1.9-1.5l5.8,5.2l10.1-8l-0.2-0.3L63,34.8l-4.6-4.3v-1.6l9.2-6.8L62.9,14.1z"/>
<path id="Fill-6" class="st3" d="M36.4,43.7c1.3,0.3,3.7,0.5,6.5-0.9c3.1-1.6,4.7-4.9,4.7-8.3l0.1-4.8V19.2l2-1.5l-0.2-0.3l-2,1.5
	l-4.5-5l-5.8,5V1.9l-7.3,5.6c0.3,0.2,1.4,0.4,1.4,1.8v23.7l-3.1,2.3l0.2,0.3l1.5-1.1l4.1,3.8l6.5-5.2l-0.2-0.3l-1.5,1.2l-1.6-1.6
	l0-13.2l1.9-1.6l2.8,3.5c0,0,0,8.6,0,11.4c0,3,0,6.8-1.6,8.6C38.7,43.1,38,43.2,36.4,43.7"/>
<path id="Fill-8" class="st3" d="M81.7,42.5c-2.6-0.3-3.7-1.9-3.7-3.1c0-0.8,0.7-2.4,2.3-2.6c1.6-0.2,3.2,0.5,4.6,2.1l6-6.6
	l-0.3-0.3l-1.6,1.8c-1.6-1.9-4-3-6.3-3.4V10.3l15.7,28.4c0,0,0.1,0.3,0.8,0.3c0.6,0,0.4-0.4,0.4-0.4l0-28.6c1.3-0.1,3.2-0.8,4.2-1.7
	c3-3.1,1.8-6.4,1.5-6.8c-0.2,1.5-1.3,2.9-3.2,3c-2.5,0-4-1.8-4-1.8l-6,6.8l0.3,0.3l1.7-2c2.1,1.9,3.6,2.1,5.2,2.2l0,16.6l-11.6-21
	c-1.1-1.7-2.6-3.3-5.2-3.3c-2.9,0-4.9,2.5-5.2,4.7c-0.3,2.5,0,3,0,3s0.4-2.7,2.1-2.7c1.5,0,2.3,1.4,2.9,2.5v6.1
	c-1.6,0.1-5.7,0.3-5.9,4.5c0,1.6,1,3.2,1.8,3.8c1.1,0.7,2,0.7,2,0.7s-1.3-0.7-0.9-2.1c0.4-1.3,3-1.5,3.1-0.9v8.6
	c-1.3,0-5.3,0.1-7.1,3.6c-1.1,2.1-1,4.4,0.1,6C76.4,41.4,78.4,43.1,81.7,42.5"/>
<path id="Fill-10" class="st3" d="M114.9,25l-4.7,3.4V17.1L114.9,25z M114.8,14.1c0,0-3.2,1.9-5.3,3.2c-2.1,1.3-5,2.6-5,2.6v13.3
	l-1.9,1.5l0.3,0.3l1.9-1.5l5.8,5.2l10.1-8l-0.2-0.3l-5.6,4.4l-4.6-4.3v-1.6l9.2-6.8L114.8,14.1z"/>
<path id="Fill-12" class="st3" d="M128.9,38.8l-5-4.1l-2.2,1.6l-0.2-0.3l2.2-1.6V22.9c0.1-4.7-4.3-3.6-4.1-8.6
	c0.1-2.2,2.3-3.9,3.3-4.4c1.2-0.6,2.4-0.6,2.4-0.6s-2,1.3-1.5,3.1c0.8,2.8,5.6,3.1,5.7,6.8v13l3.6,2.8l0.9-0.7V20.2l-1.9-1.9
	l4.9-4.3l4.5,4l-1.7,1.9v12.5l4.2,3.5l0.8-0.5v-15l-1.9-1.8l4.9-4.5l4.6,3.8l1.8-1.6l0.3,0.3l-4.2,3.6v12.3l-10.6,6.5l-5.4-4.3
	L128.9,38.8z"/>
<path id="Fill-14" class="st3" d="M346.5,25l-4.7,3.4V17.1L346.5,25z M346.4,14.1c0,0-3.2,1.9-5.3,3.2c-2.1,1.3-5,2.6-5,2.6v13.3
	l-1.9,1.5l0.3,0.3l1.9-1.5l5.8,5.2l10.1-8l-0.2-0.3l-5.6,4.4l-4.6-4.3v-1.6l9.2-6.8L346.4,14.1z"/>
<polygon id="Fill-17" class="st3" points="299,19.6 299.2,19.9 301.2,18.2 304,21.5 304,32.7 302.6,33.9 307.1,39 311.6,34.5 
	309.7,32.5 309.7,19 310.9,18.1 314,21.8 314,32.9 312.8,34.1 317,38.9 321.5,34.4 319.8,32.6 319.8,19.1 321,18.1 324.3,21.7 
	324.3,32.8 323.2,33.9 327.8,39 334,33.2 333.7,32.9 332.2,34.3 329.9,31.7 329.9,19.1 332.2,17.4 331.9,17.1 329.7,18.8 325.5,14 
	319.5,18.8 315.2,14.2 309.4,18.8 305.2,14.2 "/>
<polygon id="Fill-18" class="st3" points="286,20 286.3,20.3 287.9,18.9 290.5,21.8 290.5,34.2 288.7,35.7 288.9,36 290.8,34.4 
	295,39 301,33.9 300.7,33.6 299,35.1 296.5,32.3 296.5,20.3 298.6,18.5 298.3,18.2 296.3,19.9 292,15 "/>
<polygon id="Fill-19" class="st3" points="288,9 292.4,5 296,9 291.6,13 "/>
<defs>
	<filter id="Adobe_OpacityMaskFilter_1_" filterUnits="userSpaceOnUse" x="259.2" y="0" width="28" height="39.4">
		<feColorMatrix  type="matrix" values="1 0 0 0 0  0 1 0 0 0  0 0 1 0 0  0 0 0 1 0"/>
	</filter>
</defs>
<mask maskUnits="userSpaceOnUse" x="259.2" y="0" width="28" height="39.4" id="mask-4_1_">
	<g class="st4">
		<polygon id="path-3_1_" class="st1" points="259.2,0 287.2,0 287.2,39.4 259.2,39.4 		"/>
	</g>
</mask>
<path id="Fill-20" class="st5" d="M269.8,28.8v-14l-4.2,1.9c0,0-1.1,2.4-0.9,5.9c0.1,2.7,1.7,6,2.8,7.3L269.8,28.8z M282,0
	c1,0.1,2.7,0.6,3.9,1.7c1.3,1.3,1.6,3.2,1.1,4.9c-0.4,1.6-0.9,2.4-2.4,3.4c-1.6,1.1-3.5,1-3.5,1v6.7l3.3,2.6l-3.3,2.6v9.2
	c0,0,3.3-1.9,5.3-6.1c0,0,0.1-0.2,0.3-0.7c0.2,1.1,0.1,3.4-1.2,6.3c-1,2.2-2.7,4.3-4.9,5.5c-3.9,2.2-6.8,2.4-9.9,1.7
	c-3.6-0.8-7-2.8-9.2-6.4c-1.6-2.5-2.3-5.5-2.2-8.6c0.1-6.2,4.7-11.6,10-13.6c0.6-0.2,0.9-0.4,1.8-0.5c-0.4,0.3-0.9,0.7-1.5,1.1
	c-1.7,1.1-3.2,3.4-3.8,5.1l10.3-4.6v14.5l-8.3,4.2c0.9,1.3,3.8,3.3,6.3,3.6c4.2,0.5,6.6-1.4,6.6-1.4v-9.4l-3.2-2.6l3.2-2.6v-6.7
	c-1.8-0.2-3.9-0.8-5.2-1.1c-1.8-0.5-8-2.2-9-2.3c-1-0.1-2.2-0.1-2.9,0.5c-0.7,0.7-1.2,1.8-0.9,2.8c0.2,0.6,0.6,0.9,0.9,1.3
	c0,0-0.4,0-1-0.4c-1.2-0.7-2-2.1-2.2-3.8c-0.1-2.2,0.8-4.2,2.6-5.6c1.6-1,3.4-1.7,5.5-1.4c3,0.4,7.1,2.2,10.8,3
	c1.4,0.3,2.5,0.5,3.5-0.1c0.5-0.3,1.3-1.2,0.6-2.3c-0.8-1.3-2.3-1.3-3.5-1.5C281,0,281.2,0,282,0L282,0z"/>
<path id="Fill-23" class="st3" d="M359.3,16.7v6.6l2.2,1.9c0,0,4.8-3.8,6.5-7.4c0,0-2.1,2.9-5,2C360.5,19.2,359.3,16.7,359.3,16.7
	 M354,34.3c0,0,2.1-3.5,5.7-2.7c3.4,0.7,4.6,4.4,4.6,4.4v-8.4l-2.4-2.1C359.2,28.1,354.6,31.9,354,34.3 M357.4,40.6
	c-0.7,0.2-3.6-0.5-4.3-3.5c-0.7-2.9,1.4-4.9,4.4-8.1l-3.6-3.3v-6.4c0,0,2.7-1.3,4.8-2.6c2.1-1.3,4.2-2.7,4.2-2.7s1.6,2,3.3,1.8
	c2.8-0.2,2.6-2.4,2.6-2.9c0.5,0.8,1.7,3.4-3.1,9l4,3.2v8.3c0,0-4.6,2.4-8.9,5.6c0,0-2.4-3-4.5-1.6C354.7,38.2,355.4,39.9,357.4,40.6
	"/>
<path id="Fill-25" class="st3" d="M198.4,31.2l5.1,4.6V21.7l-5.1-4.7V31.2z M209,19.7l1.8-1.6l0.3,0.3l-1.7,1.6v13.2
	c0,0-3.3,1.8-5.6,3.1c-2.3,1.3-4.8,2.8-4.8,2.8l-6-5.1l-1.6,1.4l-0.3-0.3l1.7-1.5V19.3h0c0,0,2.9-1.3,5.3-2.7
	c2.2-1.2,4.6-2.6,4.6-2.6L209,19.7z"/>
<path id="Fill-27" class="st3" d="M220.8,18.3l3.8-3.9c0,0,0.5,0.5,1,0.7c0.3,0.1,1.4,0.7,2.5,0.2c0.6-0.3,0.7-0.4,1.3-1
	c0.1,3.1-1.3,5.2-3.2,6.1c-0.7,0.4-2.9,1.1-5.2-1.7v14.1l2.4,2.2l2-1.7l0.2,0.3l-6.4,5.3l-4.8-4.4l-1.7,1.6l-0.3-0.3l2.6-2.4l0-12.2
	l-2-2.7l-1.7,1.5l-0.3-0.3l6.2-5.6L220.8,18.3z"/>
<path id="Fill-29" class="st3" d="M237,24.2l7.1-10.4c0,0,0.9,1.1,2.6,1.5c2.2,0.6,4.2-1.6,4.2-1.6c-0.4,2.8-1.8,5.9-4.7,6.4
	c-2.5,0.4-4.9-1.6-4.9-1.6l-0.5,0.7l9.9,14.9l2-1.7l0.3,0.3l-6.8,5.9L237,24.2z"/>
<path id="Fill-31" class="st3" d="M231.2,10.4c0-2.2-0.9-3.6-2.1-3.5l7.7-5.5v30.9h0l2,2.2l1.5-1.3l0.2,0.3l-6.2,5.5l-4.2-4
	l-1.7,1.5l-0.3-0.3l3-2.6V10.4z"/>
<path id="Fill-33" class="st3" d="M181.4,19.1c0,0-0.9,1-2.2,1c-1.3,0-2.2-1-2.2-1v4.2c0,0,0.9-1,2.2-1c1.3,0,2.2,0.9,2.2,0.9V19.1z
	 M181.4,10l-3-2.6L177,8.5v9.9c0,0,0.9,1.1,2.2,1.1c1.3,0,2.2-1.1,2.2-1.1V10z M177,38.1c0,0,1.8,0.5,3.1-0.6
	c1.5-1.2,1.3-2.9,1.3-2.9V23.9c0,0-0.8-1.1-2.2-1.1c-1.3,0-2.2,1.1-2.2,1.1V38.1z M166.4,9.9c0-2.1-0.8-3.2-2.2-3.3
	c-2,0-2.4,2.7-2.4,2.7s-0.4-2.1,1.4-4.1c1-1.1,2.9-2.6,5.8-1.9c3,0.7,3.9,3.1,3.9,5.2v28.7c0,0,1.1,0.1,1.9,0.3
	c0.9,0.2,1.8,0.4,1.8,0.4V3.3h0.4V8l6.2-5l4.6,4.1l2.1-1.8l0.2,0.3l-2.2,1.9v26.7c-0.1,1.7-0.4,3.5-2,4.5c-3.7,2.2-8.1-0.3-12-0.9
	c-2.9-0.4-7.5-1-8.7,1.7c-0.4,0.9-0.3,2.2,1,3.1c2.7,1.8,14.5-3,18.5-1.1c3.7,1.7,3.7,4.5,3.1,6.3c-1,3.5-5.4,4.1-5.4,4.1
	s2.2-1.3,1.5-3.4c-0.3-1.1-1-1.4-3.4-1.1c-5.1,0.6-11.1,3-15.2,1.3c-2.1-0.9-3.6-3.5-3.4-6.1c0.1-3.7,4.4-5.2,4.4-5.2l0-13.8
	c-0.1-0.5-2.4-0.4-2.9,0.6c-0.8,1.5,0.9,2.2,0.9,2.2s-1.4,0.2-2.6-1.2c-0.6-0.7-1.8-3-0.2-5.2c1.3-1.8,2.8-2.1,4.8-2.3V9.9z"/>
</svg>
