<svg id="Layer_1" data-name="Layer 1" xmlns="http://www.w3.org/2000/svg" viewBox="0 0 1024 871.06"><defs><style>.cls-1{fill:#298de0;}.cls-2{fill:#29b8ff;}.cls-3{fill:#2960a1;}.cls-4{fill:#494961;}.cls-5{fill:#e87a21;}.cls-6{fill:#ffbf48;}.cls-7{fill:#a95321;}.cls-8{fill:#29a360;}.cls-9{fill:#29c46d;}.cls-10{fill:#298554;}.cls-11{fill:#e752e0;}.cls-12{fill:#ff33ac;}.cls-13{fill:#df3851;}.cls-14{fill:#a839a1;}.cls-15{fill:#ff4554;}.cls-16{fill:#bf2b4d;}</style></defs><title>logo-rd-mark</title><polygon class="cls-1" points="512 704.71 212.27 486.94 283.03 704.71 512 704.71"/><polygon class="cls-2" points="740.97 704.71 283.03 704.71 512 871.06 740.97 704.71"/><path class="cls-3" d="M441.24,563.41h-229L512,781.17h0l70.76-217.76ZM509.7,774.1" transform="translate(0 -76.47)"/><polygon class="cls-4" points="512 269.17 397.51 352.35 397.51 352.35 397.51 352.35 441.24 486.94 582.75 486.94 582.76 486.94 582.76 486.94 626.49 352.35 626.49 352.35 626.49 352.35 512 269.17 512 269.17 512 269.17"/><polygon class="cls-5" points="326.76 134.59 697.24 134.59 512 0 326.76 134.59"/><polygon class="cls-6" points="141.51 269.17 512 0 228.97 0 141.51 269.17"/><polygon class="cls-7" points="697.24 134.59 326.76 134.59 326.76 134.59 397.51 352.35 512 269.17 512 269.17 697.24 134.59"/><polygon class="cls-8" points="212.27 486.94 326.76 134.59 141.51 269.17 212.27 486.94"/><polygon class="cls-9" points="283.03 704.71 141.51 269.17 54.05 538.35 283.03 704.71"/><polygon class="cls-8" points="0 371.99 54.05 538.35 141.51 269.17 0 371.99"/><polygon class="cls-10" points="397.51 352.35 397.51 352.35 326.76 134.59 212.27 486.94 212.27 486.94 212.27 486.94 441.24 486.94 441.24 486.94 441.24 486.94 397.51 352.35"/><polygon class="cls-11" points="811.73 486.94 512 704.71 740.97 704.7 811.73 486.94"/><polygon class="cls-12" points="882.48 269.17 740.97 704.71 969.94 538.35 882.48 269.17"/><polygon class="cls-13" points="1024 371.99 969.94 538.35 882.48 269.18 1024 371.99"/><polygon class="cls-14" points="811.73 486.94 811.73 486.94 811.73 486.94 811.73 486.94 626.49 352.35 582.76 486.94 582.75 486.94 512 704.71 811.73 486.94 811.73 486.94 811.73 486.94"/><polygon class="cls-13" points="697.24 134.59 811.73 486.94 882.48 269.17 697.24 134.59"/><polygon class="cls-15" points="512 0 882.48 269.17 795.02 0 512 0"/><polygon class="cls-16" points="811.73 486.94 697.24 134.59 697.24 134.59 512 269.17 626.49 352.35 626.49 352.35 811.73 486.94"/></svg>